/opt/anaconda3/envs/stylemac/lib/python3.10/site-packages/torch/autograd/__init__.py:251: UserWarning: The operator 'aten::sgn.out' is not currently supported on the MPS backend and will fall back to run on the CPU. This may have performance implications. (Triggered internally at /Users/runner/work/pytorch/pytorch/pytorch/aten/src/ATen/mps/MPSFallback.mm:13.)
  Variable._execution_engine.run_backward(  # Calls into the C++ engine to run the backward pass
ffmpeg version 7.1.1 Copyright (c) 2000-2025 the FFmpeg developers
  built with Apple clang version 16.0.0 (clang-1600.0.26.6)
  configuration: --prefix=/opt/homebrew/Cellar/ffmpeg/7.1.1_2 --enable-shared --enable-pthreads --enable-version3 --cc=clang --host-cflags= --host-ldflags='-Wl,-ld_classic' --enable-ffplay --enable-gnutls --enable-gpl --enable-libaom --enable-libaribb24 --enable-libbluray --enable-libdav1d --enable-libharfbuzz --enable-libjxl --enable-libmp3lame --enable-libopus --enable-librav1e --enable-librist --enable-librubberband --enable-libsnappy --enable-libsrt --enable-libssh --enable-libsvtav1 --enable-libtesseract --enable-libtheora --enable-libvidstab --enable-libvmaf --enable-libvorbis --enable-libvpx --enable-libwebp --enable-libx264 --enable-libx265 --enable-libxml2 --enable-libxvid --enable-lzma --enable-libfontconfig --enable-libfreetype --enable-frei0r --enable-libass --enable-libopencore-amrnb --enable-libopencore-amrwb --enable-libopenjpeg --enable-libspeex --enable-libsoxr --enable-libzmq --enable-libzimg --disable-libjack --disable-indev=jack --enable-videotoolbox --enable-audiotoolbox --enable-neon
  libavutil      59. 39.100 / 59. 39.100
  libavcodec     61. 19.101 / 61. 19.101
  libavformat    61.  7.100 / 61.  7.100
  libavdevice    61.  3.100 / 61.  3.100
  libavfilter    10.  4.100 / 10.  4.100
  libswscale      8.  3.100 /  8.  3.100
  libswresample   5.  3.100 /  5.  3.100
  libpostproc    58.  3.100 / 58.  3.100
Input #0, mov,mp4,m4a,3gp,3g2,mj2, from '/Users/juheon/Desktop/DE_FAKE/capstone/stylegan2-ada-pytorch/InMAC/frame/data/stylegan/d81a99fd-f837-444a-85ac-176392bd7adb/refined/refine_raw.mp4':
  Metadata:
    major_brand     : isom
    minor_version   : 512
    compatible_brands: isomiso2mp41
    encoder         : Lavf61.7.100
  Duration: 00:00:06.67, start: 0.000000, bitrate: 14361 kb/s
  Stream #0:0[0x1](und): Video: mpeg4 (Simple Profile) (mp4v / 0x7634706D), yuv420p, 2048x1024 [SAR 1:1 DAR 2:1], 14359 kb/s, 30 fps, 30 tbr, 15360 tbn (default)
      Metadata:
        handler_name    : VideoHandler
        vendor_id       : [0][0][0][0]
Stream mapping:
  Stream #0:0 -> #0:0 (mpeg4 (native) -> h264 (libx264))
Press [q] to stop, [?] for help
[libx264 @ 0x136e194c0] using SAR=1/1
[libx264 @ 0x136e194c0] using cpu capabilities: ARMv8 NEON
[libx264 @ 0x136e194c0] profile High, level 4.0, 4:2:0, 8-bit
[libx264 @ 0x136e194c0] 264 - core 164 r3108 31e19f9 - H.264/MPEG-4 AVC codec - Copyleft 2003-2023 - http://www.videolan.org/x264.html - options: cabac=1 ref=3 deblock=1:0:0 analyse=0x3:0x113 me=hex subme=7 psy=1 psy_rd=1.00:0.00 mixed_ref=1 me_range=16 chroma_me=1 trellis=1 8x8dct=1 cqm=0 deadzone=21,11 fast_pskip=1 chroma_qp_offset=-2 threads=18 lookahead_threads=3 sliced_threads=0 nr=0 decimate=1 interlaced=0 bluray_compat=0 constrained_intra=0 bframes=3 b_pyramid=2 b_adapt=1 b_bias=0 direct=1 weightb=1 open_gop=0 weightp=2 keyint=250 keyint_min=25 scenecut=40 intra_refresh=0 rc_lookahead=40 rc=crf mbtree=1 crf=23.0 qcomp=0.60 qpmin=0 qpmax=69 qpstep=4 ip_ratio=1.40 aq=1:1.00
Output #0, mp4, to '/Users/juheon/Desktop/DE_FAKE/capstone/stylegan2-ada-pytorch/InMAC/frame/data/stylegan/d81a99fd-f837-444a-85ac-176392bd7adb/refined/refine.mp4':
  Metadata:
    major_brand     : isom
    minor_version   : 512
    compatible_brands: isomiso2mp41
    encoder         : Lavf61.7.100
  Stream #0:0(und): Video: h264 (avc1 / 0x31637661), yuv420p(tv, progressive), 2048x1024 [SAR 1:1 DAR 2:1], q=2-31, 30 fps, 15360 tbn (default)
      Metadata:
        handler_name    : VideoHandler
        vendor_id       : [0][0][0][0]
        encoder         : Lavc61.19.101 libx264
      Side data:
        cpb: bitrate max/min/avg: 0/0/0 buffer size: 0 vbv_delay: N/A
frame=   73 fps=0.0 q=29.0 size=    1280KiB time=00:00:02.36 bitrate=4430.8kbits/s speed=4.69x    frame=  170 fps=168 q=29.0 size=    3584KiB time=00:00:05.60 bitrate=5242.9kbits/s speed=5.54x    [out#0/mp4 @ 0x136e17ec0] video:4494KiB audio:0KiB subtitle:0KiB other streams:0KiB global headers:0KiB muxing overhead: 0.072139%
frame=  200 fps=181 q=-1.0 Lsize=    4498KiB time=00:00:06.60 bitrate=5582.5kbits/s speed=5.96x    
[libx264 @ 0x136e194c0] frame I:1     Avg QP:18.95  size: 74788
[libx264 @ 0x136e194c0] frame P:50    Avg QP:19.66  size: 27833
[libx264 @ 0x136e194c0] frame B:149   Avg QP:20.40  size: 21041
[libx264 @ 0x136e194c0] consecutive B-frames:  0.5%  0.0%  1.5% 98.0%
[libx264 @ 0x136e194c0] mb I  I16..4: 32.6% 67.3%  0.2%
[libx264 @ 0x136e194c0] mb P  I16..4:  5.4% 21.6%  0.1%  P16..4: 17.1%  4.4%  2.3%  0.0%  0.0%    skip:49.1%
[libx264 @ 0x136e194c0] mb B  I16..4:  1.4%  5.2%  0.0%  B16..8: 24.0%  3.5%  0.9%  direct: 3.2%  skip:61.7%  L0:56.1% L1:39.9% BI: 4.0%
[libx264 @ 0x136e194c0] 8x8 transform intra:78.5% inter:85.0%
[libx264 @ 0x136e194c0] coded y,uvDC,uvAC intra: 36.6% 33.1% 0.9% inter: 9.4% 8.3% 0.0%
[libx264 @ 0x136e194c0] i16 v,h,dc,p: 63% 21% 12%  5%
[libx264 @ 0x136e194c0] i8 v,h,dc,ddl,ddr,vr,hd,vl,hu: 24% 11% 51%  3%  2%  2%  2%  3%  3%
[libx264 @ 0x136e194c0] i4 v,h,dc,ddl,ddr,vr,hd,vl,hu: 14%  8% 21%  9% 13% 10% 10%  8%  7%
[libx264 @ 0x136e194c0] i8c dc,h,v,p: 56% 18% 24%  2%
[libx264 @ 0x136e194c0] Weighted P-Frames: Y:0.0% UV:0.0%
[libx264 @ 0x136e194c0] ref P L0: 45.0%  6.1% 30.5% 18.5%
[libx264 @ 0x136e194c0] ref B L0: 73.1% 20.0%  6.9%
[libx264 @ 0x136e194c0] ref B L1: 88.7% 11.3%
[libx264 @ 0x136e194c0] kb/s:5521.87
